<svg width="90" height="90" viewBox="0 0 90 90" fill="none" xmlns="http://www.w3.org/2000/svg">
<path d="M45 90C69.8528 90 90 69.8528 90 45C90 20.1472 69.8528 0 45 0C20.1472 0 0 20.1472 0 45C0 69.8528 20.1472 90 45 90Z" fill="black"/>
<path d="M70.875 53.5139C68.256 53.5139 66.132 55.6379 66.132 58.2569C66.132 60.8759 68.256 62.9999 70.875 62.9999C73.494 62.9999 75.618 60.8759 75.618 58.2569C75.618 55.6379 73.494 53.5139 70.875 53.5139ZM61.11 27.2879L42.678 43.7039L24.255 27.2879C23.517 26.6309 22.356 27.1529 22.356 28.1429V61.9109C22.356 62.5139 22.842 62.9999 23.445 62.9999H30.852C31.455 62.9999 31.941 62.5139 31.941 61.9109V46.9619L41.517 55.4849C42.192 56.0789 43.2 56.0789 43.875 55.4849L53.451 46.9619V61.9109C53.451 62.5139 53.937 62.9999 54.54 62.9999H61.947C62.55 62.9999 63.036 62.5139 63.036 61.9109V28.1429C63.018 27.1619 61.848 26.6399 61.11 27.2879Z" fill="white"/>
</svg>
